<svg xmlns="http://www.w3.org/2000/svg" viewBox="0 0 100 100">
  <rect width="100" height="100" fill="#000000"/>
  <path d="M30 35 L30 30 C30 27 32 25 35 25 L45 25 L45 22 C45 20 47 18 50 18 C53 18 55 20 55 22 L55 25 L65 25 C68 25 70 27 70 30 L70 35 M25 35 L75 35 C78 35 80 37 80 40 L80 70 C80 73 78 75 75 75 L25 75 C22 75 20 73 20 70 L20 40 C20 37 22 35 25 35 Z" 
        fill="none" 
        stroke="#ffffff" 
        stroke-width="4" 
        stroke-linecap="round" 
        stroke-linejoin="round"/>
  <rect x="45" y="47" width="10" height="8" fill="#ffffff" rx="2"/>
</svg>
